<svg xmlns="http://www.w3.org/2000/svg" width="1200" height="320" viewBox="0 0 1200 320" role="img" aria-labelledby="title desc">
  <title id="title">Traicer — capture selected AI coding sessions without giving up the raw trace</title>
  <desc id="desc">Traicer protects selected AI coding conversations locally and stores the encrypted trace in infrastructure controlled by the developer.</desc>

  <defs>
    <linearGradient id="brand" x1="0" y1="0" x2="1" y2="1">
      <stop offset="0" stop-color="#22D3EE"/>
      <stop offset="1" stop-color="#6366F1"/>
    </linearGradient>
    <pattern id="grid" width="56" height="56" patternUnits="userSpaceOnUse">
      <path d="M56 0H0V56" fill="none" stroke="#26334E" stroke-width="1" opacity="0.28"/>
    </pattern>
  </defs>

  <rect width="1200" height="320" rx="28" fill="#040713"/>
  <rect width="1200" height="320" rx="28" fill="url(#grid)"/>
  <path d="M0 0H420C378 65 364 130 378 194C390 246 382 286 360 320H0Z" fill="#0A1A3B" opacity="0.72"/>

  <g id="identity" transform="translate(64 34)">
    <g aria-hidden="true" transform="translate(9 0)">
      <path d="M20 0C29 8 38 12 48 16V32C48 49 37 61 20 69C3 61-8 49-8 32V16C2 12 11 8 20 0Z" fill="#071630" stroke="url(#brand)" stroke-width="4" stroke-linejoin="round"/>
      <path d="M-5 36H8C13 36 14 21 21 21C28 21 28 44 35 44H47" fill="none" stroke="url(#brand)" stroke-width="4" stroke-linecap="round" stroke-linejoin="round"/>
      <circle cx="29" cy="44" r="6" fill="#071630" stroke="#22D3EE" stroke-width="3"/>
      <path d="M29 42V47" stroke="#22D3EE" stroke-width="3" stroke-linecap="round"/>
    </g>
    <text x="88" y="27" fill="#F8FAFC" font-family="-apple-system, BlinkMacSystemFont, 'Segoe UI', sans-serif" font-size="27" font-weight="750">Traicer</text>
    <text x="88" y="54" fill="#67E8F9" font-family="ui-monospace, SFMono-Regular, Menlo, monospace" font-size="16" font-weight="650" letter-spacing="1.5">AI TRACES YOU CONTROL</text>

    <text x="0" y="142" fill="#F8FAFC" font-family="-apple-system, BlinkMacSystemFont, 'Segoe UI', sans-serif" font-size="61" font-weight="780" letter-spacing="-2.2">Capture the session.</text>
    <text x="0" y="205" fill="#F8FAFC" font-family="-apple-system, BlinkMacSystemFont, 'Segoe UI', sans-serif" font-size="61" font-weight="780" letter-spacing="-2.2">Keep the raw trace yours.</text>
    <text x="0" y="247" fill="#A7B3CF" font-family="-apple-system, BlinkMacSystemFont, 'Segoe UI', sans-serif" font-size="23">Prepare selected AI coding conversations for potential sale—</text>
    <text x="0" y="278" fill="#A7B3CF" font-family="-apple-system, BlinkMacSystemFont, 'Segoe UI', sans-serif" font-size="23">protected locally, encrypted into storage you control.</text>
  </g>

  <g id="trace" aria-hidden="true" transform="translate(803 64)">
    <path d="M0 96H42C64 96 66 42 94 42C124 42 121 156 154 156H216C246 156 246 96 278 96H328" fill="none" stroke="#183A5B" stroke-width="34" stroke-linecap="round" stroke-linejoin="round" opacity="0.55"/>
    <path d="M0 96H42C64 96 66 42 94 42C124 42 121 156 154 156H216C246 156 246 96 278 96H328" fill="none" stroke="url(#brand)" stroke-width="5" stroke-linecap="round" stroke-linejoin="round"/>
    <circle cx="154" cy="156" r="18" fill="#071630" stroke="#22D3EE" stroke-width="5"/>
    <path d="M154 150V162" stroke="#22D3EE" stroke-width="5" stroke-linecap="round"/>
    <text x="164" y="226" text-anchor="middle" fill="#94A3B8" font-family="ui-monospace, SFMono-Regular, Menlo, monospace" font-size="15" letter-spacing="0.8">ROUTE · REDACT · ENCRYPT · OWN · SELL</text>
  </g>
</svg>
